<?xml version="1.0" standalone="no"?>
<!DOCTYPE svg PUBLIC "-//W3C//DTD SVG 20010904//EN"
 "http://www.w3.org/TR/2001/REC-SVG-20010904/DTD/svg10.dtd">
<svg version="1.0" xmlns="http://www.w3.org/2000/svg"
 width="700.000000pt" height="700.000000pt" viewBox="0 0 700.000000 700.000000"
 preserveAspectRatio="xMidYMid meet">
<metadata>
Created by potrace 1.14, written by Peter Selinger 2001-2017
</metadata>
<g transform="translate(0.000000,700.000000) scale(0.100000,-0.100000)"
fill="#000000" stroke="none">
<path d="M6697 6994 c-1 -1 -58 -5 -127 -8 -120 -6 -155 -9 -272 -21 -29 -4
-75 -8 -103 -11 -27 -2 -63 -6 -80 -9 -16 -3 -46 -7 -65 -9 -132 -18 -177 -26
-430 -73 -14 -2 -45 -9 -70 -14 -25 -6 -56 -13 -70 -15 -14 -3 -63 -14 -110
-25 -47 -12 -92 -22 -100 -24 -29 -6 -276 -77 -355 -102 -153 -48 -290 -94
-310 -103 -11 -5 -56 -23 -100 -39 -98 -35 -235 -92 -333 -137 -41 -19 -76
-34 -79 -34 -7 0 -366 -180 -438 -220 -114 -63 -270 -154 -312 -182 -23 -15
-44 -28 -47 -28 -4 0 -221 -141 -241 -157 -6 -4 -39 -28 -75 -52 -160 -110
-462 -348 -639 -506 -174 -155 -427 -409 -581 -585 -41 -47 -78 -87 -81 -90
-14 -13 -223 -276 -291 -366 -80 -106 -308 -438 -308 -448 0 -3 -16 -29 -35
-56 -19 -27 -35 -52 -35 -54 0 -3 -22 -41 -50 -86 -27 -45 -50 -83 -50 -85 0
-2 -15 -30 -34 -62 -70 -121 -201 -385 -295 -595 -80 -179 -191 -480 -269
-728 -60 -191 -145 -520 -167 -650 -3 -19 -10 -51 -15 -70 -5 -19 -11 -53 -14
-75 -4 -22 -13 -76 -21 -120 -7 -44 -17 -105 -20 -135 -4 -30 -8 -57 -10 -60
-2 -3 -6 -38 -10 -78 -3 -39 -8 -82 -10 -94 -5 -23 -9 -62 -21 -203 -10 -116
-12 -148 -19 -377 l-6 -208 1385 0 1385 0 3 1043 c3 958 5 1047 21 1102 95
326 370 546 698 559 335 13 638 -197 743 -515 35 -107 36 -142 36 -1169 l0
-1020 1365 0 1364 0 0 3500 0 3501 -150 -3 c-83 -2 -151 -4 -152 -4z"/>
</g>
</svg>
