<?xml version="1.0" standalone="no"?>
<!DOCTYPE svg PUBLIC "-//W3C//DTD SVG 20010904//EN"
 "http://www.w3.org/TR/2001/REC-SVG-20010904/DTD/svg10.dtd">
<svg version="1.0" xmlns="http://www.w3.org/2000/svg"
 width="672.000000pt" height="672.000000pt" viewBox="0 0 672.000000 672.000000"
 preserveAspectRatio="xMidYMid meet">
<metadata>
Created by potrace 1.14, written by Peter Selinger 2001-2017
</metadata>
<g transform="translate(0.000000,672.000000) scale(0.100000,-0.100000)"
fill="#000000" stroke="none">
<path d="M4139 6396 c-2 -2 -38 -6 -79 -10 -41 -3 -84 -8 -95 -10 -11 -2 -40
-7 -65 -10 -25 -3 -56 -8 -70 -11 -14 -3 -38 -8 -55 -11 -42 -7 -227 -53 -245
-61 -8 -3 -19 -7 -25 -8 -20 -5 -141 -46 -160 -55 -11 -4 -69 -30 -130 -56
-218 -95 -465 -247 -677 -417 -160 -127 -173 -139 -623 -582 -725 -713 -767
-756 -848 -865 -73 -98 -185 -321 -201 -401 -3 -13 -10 -40 -16 -59 -6 -19
-13 -51 -16 -70 -3 -19 -8 -38 -9 -41 -22 -35 -22 -357 -1 -474 21 -116 25
-134 47 -200 28 -84 30 -88 85 -200 105 -214 273 -404 480 -542 137 -93 356
-188 471 -206 17 -3 35 -7 40 -10 4 -2 31 -7 58 -11 28 -3 61 -8 75 -11 28 -6
267 -7 315 -1 63 8 121 17 155 26 19 5 46 11 60 13 14 3 54 15 90 27 36 13 71
23 78 23 6 0 12 4 12 9 0 4 5 8 10 8 25 0 171 78 264 140 111 75 132 95 801
755 240 237 451 438 469 447 67 34 175 13 228 -45 40 -45 53 -140 25 -193 -18
-35 -28 -46 -658 -666 -494 -485 -511 -501 -657 -599 -166 -111 -447 -235
-582 -255 -8 -1 -46 -9 -85 -18 -108 -23 -148 -27 -320 -30 -186 -4 -331 12
-495 55 -91 24 -135 38 -175 55 -16 7 -55 22 -85 34 -123 48 -348 185 -448
273 -61 54 -185 179 -236 238 -110 128 -255 382 -301 529 -10 30 -21 63 -26
72 -5 9 -11 30 -14 47 -3 16 -9 41 -15 55 -5 15 -7 26 -5 26 2 0 1 10 -4 23
-5 12 -11 45 -15 72 -3 28 -10 75 -15 105 -11 71 -6 389 8 460 6 30 12 67 15
83 3 15 7 35 10 45 3 9 7 29 10 43 24 139 187 488 286 613 120 148 120 149
957 973 297 292 439 439 453 467 34 71 23 158 -30 226 -22 28 -74 65 -83 58
-2 -2 -10 2 -18 9 -21 17 -128 10 -169 -12 -19 -10 -116 -98 -215 -196 -99
-98 -272 -268 -385 -379 -757 -743 -794 -782 -924 -980 -69 -104 -144 -242
-182 -335 -14 -33 -29 -69 -34 -80 -13 -29 -72 -200 -69 -200 1 0 -4 -20 -11
-45 -7 -25 -14 -56 -16 -70 -3 -14 -7 -32 -9 -40 -3 -8 -7 -32 -11 -54 -3 -21
-8 -48 -10 -60 -19 -97 -26 -431 -11 -566 14 -134 44 -277 84 -403 14 -43 26
-84 27 -90 1 -7 7 -22 14 -34 7 -12 12 -27 12 -33 0 -17 115 -254 140 -290 12
-16 19 -30 16 -30 -9 0 121 -187 183 -265 90 -113 267 -283 392 -377 63 -49
120 -88 126 -88 6 0 13 -4 15 -8 11 -26 272 -160 423 -217 172 -65 302 -97
515 -130 109 -16 338 -24 362 -13 12 6 18 5 18 -2 0 -6 3 -9 8 -7 4 3 45 8 92
11 226 17 517 89 715 176 22 10 55 24 73 31 17 8 32 17 32 20 0 3 6 6 13 6 6
0 31 12 55 26 23 15 42 24 42 20 0 -5 4 -3 8 2 4 6 24 19 45 30 20 11 37 23
37 27 0 5 5 8 12 8 13 0 201 134 256 183 55 49 311 299 927 905 115 114 229
229 252 256 142 164 178 429 85 633 -141 313 -504 452 -824 317 -117 -49 -71
-7 -795 -720 -450 -443 -488 -480 -553 -525 -72 -50 -202 -115 -245 -123 -13
-3 -29 -7 -35 -11 -5 -3 -19 -8 -30 -11 -11 -2 -30 -6 -42 -9 -67 -16 -114
-20 -223 -20 -178 0 -278 21 -435 93 -133 60 -320 217 -385 322 -15 25 -33 48
-39 52 -6 5 -7 8 -1 8 6 0 6 3 -1 8 -15 10 -68 126 -92 202 -32 100 -45 185
-44 300 1 158 33 291 103 431 76 153 65 141 909 969 195 191 369 361 386 376
65 61 217 184 289 234 28 19 52 37 55 40 18 19 214 135 305 180 28 14 52 28
53 33 2 4 10 7 17 7 7 0 43 13 78 29 130 58 363 125 512 146 22 3 51 8 65 10
128 24 491 24 670 0 129 -18 192 -3 253 60 31 32 58 96 60 143 2 29 -14 93
-26 109 -40 49 -67 73 -107 93 -25 13 -46 22 -48 20 -3 -3 -141 11 -167 17
-23 6 -511 14 -516 9z"/>
<path d="M4268 5595 c-2 -2 -34 -6 -73 -9 -126 -11 -322 -53 -470 -101 -81
-26 -316 -123 -325 -134 -3 -3 -25 -16 -50 -29 -117 -59 -355 -228 -445 -315
-27 -27 -979 -964 -1047 -1030 -90 -90 -169 -214 -184 -289 -2 -13 -7 -34 -11
-48 -10 -40 -12 -219 -2 -226 5 -3 7 -9 4 -14 -8 -13 33 -127 67 -187 54 -96
165 -201 258 -244 19 -9 46 -21 60 -28 14 -6 34 -13 45 -16 11 -2 37 -9 59
-14 21 -5 86 -8 145 -6 179 5 299 58 445 199 44 43 288 282 542 532 526 519
517 510 604 568 56 38 201 115 216 115 2 0 28 6 57 15 54 15 86 23 147 33 61
10 315 4 315 -7 0 -1 15 -3 33 -6 89 -11 250 -79 359 -151 89 -58 223 -196
280 -288 51 -82 100 -194 123 -285 20 -73 21 -89 25 -222 2 -98 -1 -148 -16
-215 -20 -90 -46 -171 -61 -187 -4 -6 -8 -18 -8 -28 0 -10 -4 -18 -10 -18 -5
0 -10 -7 -10 -15 0 -9 -5 -21 -11 -28 -5 -7 -29 -41 -52 -77 -42 -66 -125
-150 -785 -800 -405 -399 -532 -518 -606 -570 -11 -8 -26 -19 -32 -25 -11 -11
-20 -17 -126 -94 -112 -81 -301 -188 -448 -254 -103 -47 -344 -122 -450 -141
-19 -3 -45 -8 -56 -10 -36 -7 -86 -14 -159 -23 -94 -11 -471 -9 -565 3 -111
14 -200 11 -236 -8 -76 -41 -130 -139 -119 -221 10 -78 65 -149 137 -176 62
-23 301 -44 508 -44 134 0 302 9 350 18 14 2 47 7 73 10 110 11 388 77 477
112 8 4 17 7 20 8 25 6 117 39 125 45 6 4 28 14 50 22 134 53 355 173 503 275
90 61 201 143 228 168 7 5 26 21 44 35 17 14 42 34 54 45 12 11 47 42 77 69
60 54 738 718 1033 1012 243 243 334 368 413 569 28 70 36 93 50 140 37 126
46 199 47 380 1 210 -10 286 -65 450 -75 222 -185 396 -359 565 -178 174 -382
292 -616 355 -105 29 -109 30 -185 41 -64 10 -345 10 -409 1 -93 -14 -150 -27
-250 -59 -90 -28 -226 -90 -285 -128 -16 -11 -37 -23 -45 -27 -39 -17 -177
-131 -266 -219 -55 -53 -302 -297 -551 -541 -248 -245 -466 -454 -484 -465
-145 -89 -330 70 -261 225 20 45 136 163 1007 1016 61 60 148 138 195 175 47
36 90 71 97 76 7 6 15 10 18 10 4 0 25 13 48 28 96 65 348 180 427 195 14 3
37 10 52 16 82 31 323 64 483 64 177 1 436 -36 555 -80 8 -4 20 -7 26 -8 6 -2
53 -19 105 -40 275 -109 544 -303 725 -525 16 -19 32 -36 37 -38 4 -2 7 -8 7
-13 0 -6 11 -22 25 -37 14 -15 25 -32 25 -39 0 -7 4 -13 8 -13 11 0 126 -202
148 -260 9 -25 21 -50 25 -55 16 -22 79 -226 98 -320 44 -215 47 -490 6 -682
-7 -35 -10 -63 -8 -63 3 0 0 -6 -6 -14 -6 -8 -11 -18 -10 -22 7 -26 -58 -208
-116 -332 -69 -145 -165 -294 -259 -401 -38 -44 -364 -367 -889 -884 -220
-216 -410 -411 -424 -435 -46 -78 -30 -181 38 -250 43 -44 92 -64 156 -63 67
0 109 19 164 71 49 46 925 909 1108 1091 167 166 315 341 367 434 6 11 36 63
65 115 47 81 69 126 129 265 22 49 99 296 105 335 2 8 10 58 19 110 22 125 30
230 30 370 0 134 -13 298 -29 366 -2 12 -7 39 -11 60 -3 21 -17 80 -30 129
-14 50 -26 97 -28 105 -26 101 -161 395 -227 492 -22 31 -39 60 -39 63 0 3 -4
11 -10 18 -5 7 -42 55 -82 107 -76 100 -268 299 -353 366 -27 21 -52 42 -55
45 -18 23 -249 167 -347 217 -173 88 -430 181 -548 197 -11 2 -41 8 -67 14
-26 6 -66 13 -90 16 -24 3 -59 8 -78 11 -36 6 -427 14 -432 9z"/>
</g>
</svg>
