<svg width="1001" height="1428" viewBox="0 0 1001 1428" fill="none" xmlns="http://www.w3.org/2000/svg">
<g opacity="0.5">
<path d="M1036.68 1427.99C751.879 1427.99 484.105 1317.09 282.713 1115.77C145.809 978.9 48.8471 808.345 2.3553 622.584C-8.11752 580.73 17.3203 538.362 59.1575 527.892C100.995 517.421 143.4 542.853 153.873 584.68C193.518 743.007 276.245 888.482 393.151 1005.33C565.046 1177.19 793.581 1271.83 1036.68 1271.83C1079.81 1271.83 1114.78 1306.78 1114.78 1349.91C1114.78 1393.03 1079.81 1427.99 1036.68 1427.99Z" fill="url(#paint0_linear_4_122)"/>
<path d="M571.597 1004.02C554.954 1004.02 538.257 998.474 524.402 987.137C503.375 969.903 482.862 951.371 463.54 931.999C302.605 771.102 213.951 557.152 213.951 329.592V-328.463C213.951 -369.641 247.345 -403 288.506 -403C329.667 -403 363.061 -369.641 363.061 -328.463V329.619C363.061 517.354 436.208 693.887 568.972 826.62C584.857 842.501 601.662 857.706 618.901 871.829C650.752 897.91 655.434 944.877 629.319 976.694C614.571 994.686 593.192 1003.99 571.624 1003.99H571.57L571.597 1004.02Z" fill="url(#paint1_linear_4_122)" fill-opacity="0.35"/>
<path d="M1183.92 1181.53C1182.3 1181.53 1026.67 1179.74 967.861 1167.41C886.622 1160.51 807.304 1141.49 732.073 1110.83C693.943 1095.3 675.65 1051.8 691.156 1013.68C706.689 975.557 750.177 957.268 788.334 972.771C851.063 998.338 917.283 1013.98 985.153 1019.25L993.813 1019.93L1000.71 1022.12C1025.69 1027.45 1146.58 1032.43 1183.89 1032.43C1225.05 1032.43 1258.45 1065.79 1258.45 1106.96C1258.45 1148.14 1225.08 1181.5 1183.89 1181.5L1183.92 1181.53Z" fill="url(#paint2_linear_4_122)"/>
<path d="M1336.95 942.171H1095.51C1028.88 942.171 963.283 931.999 900.554 911.951C804.837 881.352 716.238 827.214 644.362 755.329C523.857 634.853 457.502 474.686 457.502 304.293C457.502 265.091 489.3 233.301 528.512 233.301C567.724 233.301 599.521 265.091 599.521 304.293C599.521 436.755 651.101 561.263 744.815 654.928C801.563 711.662 868.513 752.623 943.826 776.703C992.563 792.259 1043.6 800.159 1095.53 800.159H1336.98C1376.19 800.159 1407.99 831.949 1407.99 871.152C1407.99 910.355 1376.19 942.144 1336.98 942.144L1336.95 942.171Z" fill="url(#paint3_linear_4_122)" fill-opacity="0.8"/>
<path d="M528.486 336.172C489.274 336.172 457.477 304.382 457.477 265.179V-82.4635C457.477 -121.666 489.274 -153.456 528.486 -153.456C567.699 -153.456 599.496 -121.666 599.496 -82.4635V265.179C599.496 304.382 567.699 336.172 528.486 336.172Z" fill="url(#paint4_linear_4_122)" fill-opacity="0.5"/>
</g>
<defs>
<linearGradient id="paint0_linear_4_122" x1="34.0002" y1="748.537" x2="1091.85" y2="1384.78" gradientUnits="userSpaceOnUse">
<stop offset="0.17565" stop-color="#4F83F9" stop-opacity="0"/>
<stop offset="1" stop-color="#4F83F9"/>
</linearGradient>
<linearGradient id="paint1_linear_4_122" x1="314" y1="-336.463" x2="536" y2="1019.54" gradientUnits="userSpaceOnUse">
<stop offset="0.223958" stop-color="#4F83F9" stop-opacity="0"/>
<stop offset="0.880208" stop-color="#4F82F9"/>
</linearGradient>
<linearGradient id="paint2_linear_4_122" x1="704" y1="1026.54" x2="1245.01" y2="1141.62" gradientUnits="userSpaceOnUse">
<stop stop-color="#4F83F9" stop-opacity="0"/>
<stop offset="0.692708" stop-color="#4F83F9"/>
</linearGradient>
<linearGradient id="paint3_linear_4_122" x1="1388.96" y1="817.474" x2="548.314" y2="509.62" gradientUnits="userSpaceOnUse">
<stop offset="0.51474" stop-color="#6793F5"/>
<stop offset="1" stop-color="#4278F0" stop-opacity="0"/>
</linearGradient>
<linearGradient id="paint4_linear_4_122" x1="528.486" y1="361.225" x2="528" y2="-122.463" gradientUnits="userSpaceOnUse">
<stop stop-color="#4F83F9"/>
<stop offset="1" stop-color="#4F83F9" stop-opacity="0"/>
</linearGradient>
</defs>
</svg>
